<?xml version="1.0" encoding="UTF-8" standalone="no"?>
<svg width="456" height="456" viewBox="0 0 456 456" version="1.1" xmlns="http://www.w3.org/2000/svg">
	<!-- Background -->
	<rect x="0" y="0" width="456" height="456" fill="#3E4A6B" rx="80" ry="80"/>

	<!-- Simple Red Swoosh -->
	<path d="M 150 180 Q 250 140 350 200 Q 380 220 360 260 Q 340 300 280 320 Q 220 340 160 300 Q 120 260 140 220 Q 150 200 150 180 Z"
          fill="#B91C3C"/>

	<!-- Small Grey Accent -->
	<path d="M 280 200 Q 320 190 340 220 Q 350 240 340 260 Q 330 280 310 285 Q 290 290 270 280 Q 250 270 255 250 Q 260 230 280 210 Z"
          fill="#9CA3AF"/>
</svg>